<svg width="282" height="284" viewBox="0 0 282 284" fill="none" xmlns="http://www.w3.org/2000/svg">
<circle cx="141" cy="143" r="125" fill="#00C97F"/>
<path d="M150.675 26.3912L146.629 26.1283L146.324 36.6001L149.61 36.819L150.675 26.3912Z" fill="#C7F5E5"/>
<path d="M158.283 27.2777L154.265 26.7467L153.27 37.1789L156.538 37.6113L158.283 27.2777Z" fill="#C7F5E5"/>
<path d="M165.815 28.6561L161.84 27.8618L160.165 38.2097L163.4 38.8507L165.815 28.6561Z" fill="#C7F5E5"/>
<path d="M173.237 30.5215L169.324 29.4737L166.978 39.6876L170.16 40.5374L173.237 30.5215Z" fill="#C7F5E5"/>
<path d="M180.528 32.8691L176.688 31.5677L173.681 41.6079L176.8 42.6666L180.528 32.8691Z" fill="#C7F5E5"/>
<path d="M187.645 35.6895L183.897 34.1393L180.243 43.961L183.284 45.2236L187.645 35.6895Z" fill="#C7F5E5"/>
<path d="M194.561 38.9728L190.926 37.1787L186.635 46.7421L189.588 48.1989L194.561 38.9728Z" fill="#C7F5E5"/>
<path d="M201.252 42.6993L197.739 40.671L192.836 49.9313L195.686 51.5775L201.252 42.6993Z" fill="#C7F5E5"/>
<path d="M207.684 46.8546L204.313 44.6019L198.812 53.5194L201.549 55.3499L207.684 46.8546Z" fill="#C7F5E5"/>
<path d="M213.826 51.4237L210.612 48.9516L204.537 57.4912L207.152 59.4963L213.826 51.4237Z" fill="#C7F5E5"/>
<path d="M219.663 56.3821L216.616 53.7053L209.993 61.8322L212.47 64.0021L219.663 56.3821Z" fill="#C7F5E5"/>
<path d="M225.16 61.7102L222.291 58.8436L215.153 66.5178L217.482 68.8475L225.16 61.7102Z" fill="#C7F5E5"/>
<path d="M230.293 67.3884L227.621 64.3417L219.998 71.5332L222.17 74.008L230.293 67.3884Z" fill="#C7F5E5"/>
<path d="M235.046 73.3919L232.581 70.1749L224.503 76.8488L226.507 79.4638L235.046 73.3919Z" fill="#C7F5E5"/>
<path d="M239.399 79.691L237.147 76.3187L228.653 82.4548L230.479 85.1951L239.399 79.691Z" fill="#C7F5E5"/>
<path d="M243.328 86.2613L241.303 82.7533L232.422 88.3167L234.071 91.1675L243.328 86.2613Z" fill="#C7F5E5"/>
<path d="M246.822 93.0779L245.029 89.4392L235.802 94.4147L237.262 97.3661L246.822 93.0779Z" fill="#C7F5E5"/>
<path d="M249.861 100.106L248.31 96.3615L238.776 100.719L240.039 103.761L249.861 100.106Z" fill="#C7F5E5"/>
<path d="M252.43 107.317L251.126 103.476L241.334 107.205L242.394 110.323L252.43 107.317Z" fill="#C7F5E5"/>
<path d="M254.529 114.679L253.478 110.767L243.462 113.843L244.315 117.023L254.529 114.679Z" fill="#C7F5E5"/>
<path d="M256.137 122.165L255.344 118.191L245.15 120.604L245.789 123.834L256.137 122.165Z" fill="#C7F5E5"/>
<path d="M257.25 129.743L256.724 125.723L246.391 127.467L246.817 130.733L257.25 129.743Z" fill="#C7F5E5"/>
<path d="M257.872 137.375L257.604 133.328L247.182 134.393L247.395 137.681L257.872 137.375Z" fill="#C7F5E5"/>
<path d="M257.603 152.675L257.871 148.629L247.394 148.324L247.18 151.61L257.603 152.675Z" fill="#C7F5E5"/>
<path d="M256.721 160.283L257.252 156.265L246.82 155.27L246.388 158.538L256.721 160.283Z" fill="#C7F5E5"/>
<path d="M255.343 167.815L256.132 163.84L245.789 162.165L245.148 165.399L255.343 167.815Z" fill="#C7F5E5"/>
<path d="M253.478 175.237L254.525 171.324L244.311 168.978L243.457 172.16L253.478 175.237Z" fill="#C7F5E5"/>
<path d="M251.125 182.528L252.431 178.688L242.391 175.681L241.332 178.8L251.125 182.528Z" fill="#C7F5E5"/>
<path d="M248.305 189.645L249.855 185.897L240.038 182.243L238.775 185.284L248.305 189.645Z" fill="#C7F5E5"/>
<path d="M245.026 196.561L246.82 192.926L237.257 188.635L235.8 191.588L245.026 196.561Z" fill="#C7F5E5"/>
<path d="M241.3 203.252L243.328 199.739L234.068 194.836L232.421 197.686L241.3 203.252Z" fill="#C7F5E5"/>
<path d="M237.145 209.684L239.397 206.313L230.48 200.811L228.649 203.549L237.145 209.684Z" fill="#C7F5E5"/>
<path d="M232.575 215.825L235.042 212.612L226.503 206.537L224.498 209.152L232.575 215.825Z" fill="#C7F5E5"/>
<path d="M227.617 221.662L230.289 218.616L222.167 211.992L219.997 214.47L227.617 221.662Z" fill="#C7F5E5"/>
<path d="M222.289 227.16L225.155 224.291L217.481 217.153L215.151 219.482L222.289 227.16Z" fill="#C7F5E5"/>
<path d="M216.611 232.293L219.657 229.621L212.466 221.998L209.991 224.169L216.611 232.293Z" fill="#C7F5E5"/>
<path d="M210.607 237.046L213.824 234.581L207.145 226.503L204.535 228.507L210.607 237.046Z" fill="#C7F5E5"/>
<path d="M204.308 241.399L207.675 239.147L201.544 230.652L198.804 232.479L204.308 241.399Z" fill="#C7F5E5"/>
<path d="M197.733 245.328L201.246 243.302L195.682 234.422L192.827 236.071L197.733 245.328Z" fill="#C7F5E5"/>
<path d="M190.921 248.822L194.555 247.029L189.584 237.802L186.628 239.262L190.921 248.822Z" fill="#C7F5E5"/>
<path d="M183.893 251.861L187.637 250.31L183.28 240.776L180.238 242.039L183.893 251.861Z" fill="#C7F5E5"/>
<path d="M176.682 254.43L180.518 253.126L176.794 243.334L173.676 244.394L176.682 254.43Z" fill="#C7F5E5"/>
<path d="M169.315 256.529L173.232 255.478L170.156 245.462L166.972 246.315L169.315 256.529Z" fill="#C7F5E5"/>
<path d="M161.829 258.137L165.808 257.343L163.39 247.15L160.16 247.789L161.829 258.137Z" fill="#C7F5E5"/>
<path d="M154.256 259.25L158.276 258.724L156.532 248.391L153.266 248.817L154.256 259.25Z" fill="#C7F5E5"/>
<path d="M146.624 259.872L150.671 259.604L149.606 249.182L146.318 249.395L146.624 259.872Z" fill="#C7F5E5"/>
<path d="M131.319 259.603L135.365 259.871L135.675 249.394L132.384 249.18L131.319 259.603Z" fill="#C7F5E5"/>
<path d="M123.716 258.721L127.734 259.252L128.724 248.82L125.461 248.388L123.716 258.721Z" fill="#C7F5E5"/>
<path d="M116.184 257.343L120.159 258.132L121.83 247.789L118.6 247.148L116.184 257.343Z" fill="#C7F5E5"/>
<path d="M108.757 255.477L112.675 256.525L115.016 246.311L111.839 245.457L108.757 255.477Z" fill="#C7F5E5"/>
<path d="M101.471 253.125L105.311 254.431L108.318 244.391L105.199 243.332L101.471 253.125Z" fill="#C7F5E5"/>
<path d="M94.3544 250.304L98.0971 251.855L101.756 242.038L98.71 240.775L94.3544 250.304Z" fill="#C7F5E5"/>
<path d="M87.4332 247.026L91.0686 248.82L95.3644 239.257L92.4063 237.8L87.4332 247.026Z" fill="#C7F5E5"/>
<path d="M80.7468 243.3L84.2549 245.328L89.1633 236.068L86.3129 234.421L80.7468 243.3Z" fill="#C7F5E5"/>
<path d="M74.3153 239.144L77.6862 241.397L83.1875 232.48L80.4499 230.649L74.3153 239.144Z" fill="#C7F5E5"/>
<path d="M68.1685 234.575L71.3872 237.042L77.4619 228.503L74.8471 226.498L68.1685 234.575Z" fill="#C7F5E5"/>
<path d="M62.3365 229.617L65.383 232.289L72.0016 224.167L69.5295 221.997L62.3365 229.617Z" fill="#C7F5E5"/>
<path d="M56.839 224.289L59.7083 227.155L66.8414 219.481L64.5119 217.151L56.839 224.289Z" fill="#C7F5E5"/>
<path d="M51.7013 218.611L54.3784 221.657L62.0013 214.466L59.8295 211.991L51.7013 218.611Z" fill="#C7F5E5"/>
<path d="M46.9481 212.607L49.4181 215.824L57.4963 209.145L55.4873 206.535L46.9481 212.607Z" fill="#C7F5E5"/>
<path d="M42.5996 206.308L44.8524 209.675L53.3465 203.544L51.5151 200.804L42.5996 206.308Z" fill="#C7F5E5"/>
<path d="M38.6659 199.733L40.6965 203.246L49.5768 197.682L47.9282 194.826L38.6659 199.733Z" fill="#C7F5E5"/>
<path d="M35.177 192.921L36.9703 196.555L46.1924 191.584L44.7366 188.628L35.177 192.921Z" fill="#C7F5E5"/>
<path d="M32.1381 185.893L33.6891 189.637L43.2184 185.28L41.9604 182.238L32.1381 185.893Z" fill="#C7F5E5"/>
<path d="M29.5642 178.682L30.8677 182.518L40.6647 178.794L39.6046 175.676L29.5642 178.682Z" fill="#C7F5E5"/>
<path d="M27.4705 171.314L28.5215 175.231L38.5367 172.156L37.6845 168.971L27.4705 171.314Z" fill="#C7F5E5"/>
<path d="M25.8621 163.829L26.6506 167.807L36.8493 165.39L36.2052 162.16L25.8621 163.829Z" fill="#C7F5E5"/>
<path d="M24.7444 156.255L25.2752 160.276L35.6078 158.532L35.1768 155.265L24.7444 156.255Z" fill="#C7F5E5"/>
<path d="M24.1272 148.624L24.3903 152.671L34.8172 151.606L34.6044 148.318L24.1272 148.624Z" fill="#C7F5E5"/>
<path d="M24.3912 133.319L24.1283 137.365L34.6002 137.675L34.819 134.384L24.3912 133.319Z" fill="#C7F5E5"/>
<path d="M25.2779 125.716L24.7469 129.734L35.1791 130.724L35.6115 127.461L25.2779 125.716Z" fill="#C7F5E5"/>
<path d="M26.6562 118.184L25.8618 122.159L36.2098 123.829L36.8508 120.599L26.6562 118.184Z" fill="#C7F5E5"/>
<path d="M28.5215 110.757L27.4738 114.675L37.6877 117.016L38.5375 113.839L28.5215 110.757Z" fill="#C7F5E5"/>
<path d="M30.8693 103.471L29.5679 107.311L39.6081 110.318L40.6667 107.199L30.8693 103.471Z" fill="#C7F5E5"/>
<path d="M33.6897 96.3543L32.1394 100.097L41.9612 103.756L43.2238 100.715L33.6897 96.3543Z" fill="#C7F5E5"/>
<path d="M36.9728 89.4331L35.1787 93.0685L44.7421 97.3642L46.1989 94.4061L36.9728 89.4331Z" fill="#C7F5E5"/>
<path d="M40.6995 82.7467L38.6712 86.2549L47.9315 91.1632L49.5777 88.3129L40.6995 82.7467Z" fill="#C7F5E5"/>
<path d="M44.8546 76.3152L42.602 79.6861L51.5194 85.1874L53.35 82.4498L44.8546 76.3152Z" fill="#C7F5E5"/>
<path d="M49.4237 70.1685L46.9517 73.3871L55.4913 79.4619L57.4964 76.847L49.4237 70.1685Z" fill="#C7F5E5"/>
<path d="M54.3821 64.3364L51.7054 67.3829L59.8322 74.0016L62.0021 71.5244L54.3821 64.3364Z" fill="#C7F5E5"/>
<path d="M59.7103 58.839L56.8436 61.7033L64.5178 68.8413L66.8476 66.5119L59.7103 58.839Z" fill="#C7F5E5"/>
<path d="M65.3884 53.7012L62.3418 56.3783L69.5332 64.0012L72.008 61.8294L65.3884 53.7012Z" fill="#C7F5E5"/>
<path d="M71.3919 48.948L68.175 51.418L74.8489 59.4963L77.4638 57.4872L71.3919 48.948Z" fill="#C7F5E5"/>
<path d="M77.6912 44.5996L74.3189 46.8523L80.4549 55.3464L83.1952 53.5151L77.6912 44.5996Z" fill="#C7F5E5"/>
<path d="M84.2613 40.6659L80.7534 42.6964L86.3167 51.5767L89.1676 49.9282L84.2613 40.6659Z" fill="#C7F5E5"/>
<path d="M91.078 37.177L87.4393 38.9703L92.4147 48.1924L95.3662 46.7366L91.078 37.177Z" fill="#C7F5E5"/>
<path d="M98.1063 34.1379L94.3616 35.6889L98.7191 45.2182L101.761 43.9602L98.1063 34.1379Z" fill="#C7F5E5"/>
<path d="M105.317 31.5641L101.476 32.8677L105.205 42.6646L108.323 41.6046L105.317 31.5641Z" fill="#C7F5E5"/>
<path d="M112.68 29.4703L108.762 30.5214L111.843 40.5365L115.023 39.6844L112.68 29.4703Z" fill="#C7F5E5"/>
<path d="M120.165 27.8619L116.191 28.6505L118.604 38.8491L121.834 38.205L120.165 27.8619Z" fill="#C7F5E5"/>
<path d="M127.743 26.7442L123.723 27.275L125.467 37.6076L128.733 37.1766L127.743 26.7442Z" fill="#C7F5E5"/>
<path d="M135.375 26.1271L131.328 26.3902L132.393 36.8171L135.681 36.6043L135.375 26.1271Z" fill="#C7F5E5"/>
<path d="M143.031 26.011L138.977 26.0112L139.442 47.9888L142.732 47.9893L143.031 26.011Z" fill="white"/>
<path d="M138.969 259.988L143.023 259.988L142.557 238.005L139.263 238.005L138.969 259.988Z" fill="white"/>
<path d="M24.0112 140.968L24.0114 145.022L45.989 144.557L45.9895 141.263L24.0112 140.968Z" fill="white"/>
<path d="M257.988 145.03L257.988 140.977L236.005 141.442L236.005 144.731L257.988 145.03Z" fill="white"/>
<path d="M137.441 280.49C137.665 280.901 137.973 281.213 138.365 281.428C138.757 281.643 139.214 281.75 139.737 281.75C140.315 281.75 140.829 281.619 141.277 281.358C141.725 281.097 142.075 280.723 142.327 280.238C142.579 279.753 142.705 279.193 142.705 278.558C142.705 277.905 142.579 277.335 142.327 276.85C142.065 276.365 141.706 275.991 141.249 275.73C140.791 275.469 140.259 275.338 139.653 275.338C138.906 275.338 138.295 275.534 137.819 275.926C137.343 276.327 137.03 276.883 136.881 277.592H140.241V279.09H134.949V277.382C135.079 276.701 135.359 276.071 135.789 275.492C136.218 274.913 136.773 274.447 137.455 274.092C138.127 273.747 138.883 273.574 139.723 273.574C140.665 273.574 141.519 273.784 142.285 274.204C143.041 274.633 143.638 275.226 144.077 275.982C144.506 276.738 144.721 277.597 144.721 278.558C144.721 279.519 144.506 280.378 144.077 281.134C143.638 281.899 143.041 282.492 142.285 282.912C141.519 283.341 140.67 283.556 139.737 283.556C138.635 283.556 137.679 283.285 136.867 282.744C136.055 282.212 135.495 281.461 135.187 280.49H137.441Z" fill="#8D8D8F"/>
<path d="M5.16698 138.895C5.26965 138.344 5.54498 137.891 5.99298 137.537C6.44098 137.182 6.95432 137.005 7.53298 137.005C8.05565 137.005 8.51765 137.135 8.91898 137.397C9.31098 137.649 9.61898 138.017 9.84298 138.503C10.067 138.988 10.179 139.562 10.179 140.225V144.439H0.406982V140.407C0.406982 139.744 0.514316 139.175 0.728982 138.699C0.943649 138.213 1.24232 137.849 1.62498 137.607C2.00765 137.355 2.44165 137.229 2.92698 137.229C3.49632 137.229 3.97232 137.383 4.35498 137.691C4.73765 137.989 5.00832 138.391 5.16698 138.895ZM4.43898 142.479V140.687C4.43898 140.22 4.33632 139.861 4.13098 139.609C3.91632 139.357 3.61298 139.231 3.22098 139.231C2.82898 139.231 2.52565 139.357 2.31098 139.609C2.09632 139.861 1.98898 140.22 1.98898 140.687V142.479H4.43898ZM8.58298 140.505C8.58298 140.029 8.47098 139.66 8.24698 139.399C8.02298 139.128 7.70565 138.993 7.29498 138.993C6.87498 138.993 6.54832 139.133 6.31498 139.413C6.07232 139.693 5.95098 140.071 5.95098 140.547V142.479H8.58298V140.505Z" fill="#8D8D8F"/>
<path d="M281.502 142.193C281.502 143.22 281.301 144.12 280.9 144.895C280.498 145.679 279.924 146.281 279.178 146.701C278.44 147.13 277.582 147.345 276.602 147.345C275.622 147.345 274.763 147.13 274.026 146.701C273.298 146.281 272.733 145.679 272.332 144.895C271.93 144.12 271.73 143.22 271.73 142.193V138.777H281.502V142.193ZM273.396 142.123C273.396 143.15 273.676 143.943 274.236 144.503C274.796 145.063 275.584 145.343 276.602 145.343C277.619 145.343 278.412 145.063 278.982 144.503C279.56 143.943 279.85 143.15 279.85 142.123V140.737H273.396V142.123Z" fill="#8D8D8F"/>
<path d="M143.03 10.6429L139.474 6.28885V10.6429H137.514V0.87085H139.474V5.25285L143.03 0.87085H145.396L141.364 5.71485L145.508 10.6429H143.03Z" fill="#8D8D8F"/>
<path d="M227.945 152.41C228.711 152.41 229.317 152.662 229.765 153.166C230.213 153.679 230.437 154.342 230.437 155.154C230.437 155.957 230.209 156.61 229.751 157.114C229.303 157.618 228.701 157.87 227.945 157.87C227.18 157.87 226.569 157.613 226.111 157.1C225.654 156.596 225.425 155.938 225.425 155.126C225.425 154.323 225.654 153.67 226.111 153.166C226.569 152.662 227.18 152.41 227.945 152.41ZM227.931 156.33C228.389 156.33 228.739 156.213 228.981 155.98C229.233 155.747 229.359 155.462 229.359 155.126C229.359 154.799 229.233 154.519 228.981 154.286C228.739 154.053 228.389 153.936 227.931 153.936C227.483 153.936 227.138 154.048 226.895 154.272C226.653 154.505 226.531 154.79 226.531 155.126C226.531 155.453 226.653 155.733 226.895 155.966C227.138 156.209 227.483 156.33 227.931 156.33Z" fill="#C7F5E5"/>
<path d="M225.803 143.723C227.418 143.723 228.683 144.013 229.597 144.591C230.512 145.179 230.969 146.15 230.969 147.503C230.969 148.857 230.512 149.823 229.597 150.401C228.683 150.989 227.418 151.283 225.803 151.283C224.179 151.283 222.905 150.989 221.981 150.401C221.057 149.823 220.595 148.857 220.595 147.503C220.595 146.15 221.057 145.179 221.981 144.591C222.905 144.013 224.179 143.723 225.803 143.723ZM225.803 149.351C226.494 149.351 227.073 149.305 227.539 149.211C228.015 149.127 228.403 148.95 228.701 148.679C229 148.418 229.149 148.026 229.149 147.503C229.149 146.981 229 146.584 228.701 146.313C228.403 146.052 228.015 145.875 227.539 145.781C227.073 145.697 226.494 145.655 225.803 145.655C225.094 145.655 224.497 145.697 224.011 145.781C223.535 145.865 223.148 146.043 222.849 146.313C222.56 146.584 222.415 146.981 222.415 147.503C222.415 148.026 222.56 148.423 222.849 148.693C223.148 148.964 223.535 149.141 224.011 149.225C224.497 149.309 225.094 149.351 225.803 149.351Z" fill="#C7F5E5"/>
<path d="M223.437 137.228C223.027 137.302 222.709 137.47 222.485 137.732C222.271 138.002 222.163 138.362 222.163 138.81C222.163 139.388 222.401 139.808 222.877 140.07C223.363 140.331 224.175 140.462 225.313 140.462C225.015 140.247 224.781 139.944 224.613 139.552C224.445 139.169 224.361 138.754 224.361 138.306C224.361 137.708 224.483 137.167 224.725 136.682C224.977 136.206 225.346 135.828 225.831 135.548C226.326 135.268 226.923 135.128 227.623 135.128C228.659 135.128 229.481 135.436 230.087 136.052C230.703 136.668 231.011 137.508 231.011 138.572C231.011 139.897 230.587 140.83 229.737 141.372C228.888 141.922 227.609 142.198 225.901 142.198C224.688 142.198 223.694 142.09 222.919 141.876C222.145 141.67 221.557 141.311 221.155 140.798C220.754 140.294 220.553 139.603 220.553 138.726C220.553 138.035 220.684 137.447 220.945 136.962C221.216 136.476 221.566 136.103 221.995 135.842C222.434 135.59 222.915 135.445 223.437 135.408V137.228ZM225.957 138.712C225.957 139.197 226.107 139.58 226.405 139.86C226.704 140.14 227.105 140.28 227.609 140.28C228.16 140.28 228.585 140.13 228.883 139.832C229.191 139.542 229.345 139.146 229.345 138.642C229.345 138.138 229.187 137.736 228.869 137.438C228.561 137.148 228.151 137.004 227.637 137.004C227.143 137.004 226.737 137.144 226.419 137.424C226.111 137.713 225.957 138.142 225.957 138.712Z" fill="#C7F5E5"/>
<path d="M53.9492 132.066C53.1839 132.066 52.5772 131.814 52.1292 131.31C51.6812 130.796 51.4572 130.134 51.4572 129.322C51.4572 128.519 51.6859 127.866 52.1432 127.362C52.5912 126.858 53.1932 126.606 53.9492 126.606C54.7145 126.606 55.3259 126.862 55.7832 127.376C56.2405 127.88 56.4692 128.538 56.4692 129.35C56.4692 130.152 56.2405 130.806 55.7832 131.31C55.3259 131.814 54.7145 132.066 53.9492 132.066ZM53.9632 128.146C53.5059 128.146 53.1559 128.262 52.9132 128.496C52.6612 128.729 52.5352 129.014 52.5352 129.35C52.5352 129.676 52.6612 129.956 52.9132 130.19C53.1559 130.423 53.5059 130.54 53.9632 130.54C54.4112 130.54 54.7565 130.428 54.9992 130.204C55.2419 129.97 55.3632 129.686 55.3632 129.35C55.3632 129.023 55.2419 128.743 54.9992 128.51C54.7565 128.267 54.4112 128.146 53.9632 128.146Z" fill="#C7F5E5"/>
<path d="M56.0912 140.753C54.4766 140.753 53.2119 140.463 52.2972 139.885C51.3826 139.297 50.9252 138.326 50.9252 136.973C50.9252 135.619 51.3825 134.653 52.2972 134.075C53.2119 133.487 54.4766 133.193 56.0912 133.193C57.7152 133.193 58.9892 133.487 59.9132 134.075C60.8372 134.653 61.2992 135.619 61.2992 136.973C61.2992 138.326 60.8372 139.297 59.9132 139.885C58.9892 140.463 57.7152 140.753 56.0912 140.753ZM56.0912 135.125C55.4006 135.125 54.8219 135.171 54.3552 135.265C53.8792 135.349 53.4919 135.526 53.1932 135.797C52.8946 136.058 52.7452 136.45 52.7452 136.973C52.7452 137.495 52.8946 137.892 53.1932 138.163C53.4919 138.424 53.8792 138.601 54.3552 138.695C54.8219 138.779 55.4006 138.821 56.0912 138.821C56.8006 138.821 57.3979 138.779 57.8832 138.695C58.3592 138.611 58.7466 138.433 59.0452 138.163C59.3346 137.892 59.4792 137.495 59.4792 136.973C59.4792 136.45 59.3346 136.053 59.0452 135.783C58.7466 135.512 58.3592 135.335 57.8832 135.251C57.3979 135.167 56.8006 135.125 56.0912 135.125Z" fill="#C7F5E5"/>
<path d="M52.6052 141.927L61.3272 145.651V147.639L52.8292 143.887L52.8292 148.675H51.1492L51.1492 141.927H52.6052Z" fill="#C7F5E5"/>
<path d="M59.1152 155.846C58.3686 154.95 57.7479 154.236 57.2532 153.704C56.7492 153.172 56.2266 152.728 55.6852 152.374C55.1439 152.019 54.6119 151.842 54.0892 151.842C53.6132 151.842 53.2399 151.954 52.9692 152.178C52.6986 152.402 52.5632 152.747 52.5632 153.214C52.5632 153.68 52.7219 154.04 53.0392 154.292C53.3472 154.544 53.7719 154.674 54.3132 154.684L54.3132 156.588C53.1932 156.55 52.3439 156.219 51.7652 155.594C51.1866 154.959 50.8972 154.156 50.8972 153.186C50.8972 152.122 51.1819 151.305 51.7512 150.736C52.3112 150.166 53.0532 149.882 53.9772 149.882C54.7052 149.882 55.4006 150.078 56.0632 150.47C56.7259 150.862 57.3046 151.31 57.7992 151.814C58.2846 152.318 58.8726 152.976 59.5632 153.788V149.658H61.1872V156.574H59.7312L59.1152 155.846Z" fill="#C7F5E5"/>
<path d="M131.409 229.211C131.409 229.977 131.157 230.583 130.653 231.031C130.14 231.479 129.477 231.703 128.665 231.703C127.863 231.703 127.209 231.475 126.705 231.017C126.201 230.569 125.949 229.967 125.949 229.211C125.949 228.446 126.206 227.835 126.719 227.377C127.223 226.92 127.881 226.691 128.693 226.691C129.496 226.691 130.149 226.92 130.653 227.377C131.157 227.835 131.409 228.446 131.409 229.211ZM127.489 229.197C127.489 229.655 127.606 230.005 127.839 230.247C128.073 230.499 128.357 230.625 128.693 230.625C129.02 230.625 129.3 230.499 129.533 230.247C129.767 230.005 129.883 229.655 129.883 229.197C129.883 228.749 129.771 228.404 129.547 228.161C129.314 227.919 129.029 227.797 128.693 227.797C128.367 227.797 128.087 227.919 127.853 228.161C127.611 228.404 127.489 228.749 127.489 229.197Z" fill="#C7F5E5"/>
<path d="M140.096 227.069C140.096 228.684 139.807 229.949 139.228 230.863C138.64 231.778 137.669 232.235 136.316 232.235C134.963 232.235 133.997 231.778 133.418 230.863C132.83 229.949 132.536 228.684 132.536 227.069C132.536 225.445 132.83 224.171 133.418 223.247C133.997 222.323 134.963 221.861 136.316 221.861C137.669 221.861 138.64 222.323 139.228 223.247C139.807 224.171 140.096 225.445 140.096 227.069ZM134.468 227.069C134.468 227.76 134.515 228.339 134.608 228.805C134.692 229.281 134.869 229.669 135.14 229.967C135.401 230.266 135.793 230.415 136.316 230.415C136.839 230.415 137.235 230.266 137.506 229.967C137.767 229.669 137.945 229.281 138.038 228.805C138.122 228.339 138.164 227.76 138.164 227.069C138.164 226.36 138.122 225.763 138.038 225.277C137.954 224.801 137.777 224.414 137.506 224.115C137.235 223.826 136.839 223.681 136.316 223.681C135.793 223.681 135.397 223.826 135.126 224.115C134.855 224.414 134.678 224.801 134.594 225.277C134.51 225.763 134.468 226.36 134.468 227.069Z" fill="#C7F5E5"/>
<path d="M147.384 227.237C148.318 227.723 148.784 228.474 148.784 229.491C148.784 229.995 148.658 230.453 148.406 230.863C148.145 231.283 147.758 231.615 147.244 231.857C146.722 232.109 146.087 232.235 145.34 232.235C144.594 232.235 143.964 232.109 143.45 231.857C142.928 231.615 142.54 231.283 142.288 230.863C142.027 230.453 141.896 229.995 141.896 229.491C141.896 228.978 142.022 228.525 142.274 228.133C142.526 227.751 142.862 227.452 143.282 227.237C142.769 227.013 142.368 226.687 142.078 226.257C141.789 225.828 141.644 225.319 141.644 224.731C141.644 224.097 141.808 223.541 142.134 223.065C142.452 222.599 142.89 222.239 143.45 221.987C144.01 221.735 144.64 221.609 145.34 221.609C146.04 221.609 146.67 221.735 147.23 221.987C147.781 222.239 148.22 222.599 148.546 223.065C148.864 223.541 149.022 224.097 149.022 224.731C149.022 225.319 148.878 225.828 148.588 226.257C148.299 226.696 147.898 227.023 147.384 227.237ZM143.8 229.211C143.8 229.669 143.94 230.023 144.22 230.275C144.491 230.527 144.864 230.653 145.34 230.653C145.807 230.653 146.18 230.527 146.46 230.275C146.731 230.023 146.866 229.664 146.866 229.197C146.866 228.777 146.726 228.441 146.446 228.189C146.157 227.937 145.788 227.811 145.34 227.811C144.892 227.811 144.524 227.937 144.234 228.189C143.945 228.451 143.8 228.791 143.8 229.211ZM145.34 226.383C145.872 226.383 146.306 226.248 146.642 225.977C146.969 225.707 147.132 225.319 147.132 224.815C147.132 224.349 146.974 223.966 146.656 223.667C146.33 223.378 145.891 223.233 145.34 223.233C144.79 223.233 144.356 223.383 144.038 223.681C143.721 223.98 143.562 224.358 143.562 224.815C143.562 225.31 143.726 225.693 144.052 225.963C144.379 226.243 144.808 226.383 145.34 226.383Z" fill="#C7F5E5"/>
<path d="M154.403 230.233V232.039H151.029V221.833H153.045V230.233H154.403Z" fill="#C7F5E5"/>
<path d="M145.91 55.2154C145.91 54.4501 146.162 53.8434 146.666 53.3954C147.179 52.9474 147.842 52.7234 148.654 52.7234C149.456 52.7234 150.11 52.9521 150.614 53.4094C151.118 53.8574 151.37 54.4594 151.37 55.2154C151.37 55.9807 151.113 56.5921 150.6 57.0494C150.096 57.5067 149.438 57.7354 148.626 57.7354C147.823 57.7354 147.17 57.5067 146.666 57.0494C146.162 56.5921 145.91 55.9807 145.91 55.2154ZM149.83 55.2294C149.83 54.7721 149.713 54.4221 149.48 54.1794C149.246 53.9274 148.962 53.8014 148.626 53.8014C148.299 53.8014 148.019 53.9274 147.786 54.1794C147.552 54.4221 147.436 54.7721 147.436 55.2294C147.436 55.6774 147.548 56.0227 147.772 56.2654C148.005 56.5081 148.29 56.6294 148.626 56.6294C148.952 56.6294 149.232 56.5081 149.466 56.2654C149.708 56.0227 149.83 55.6774 149.83 55.2294Z" fill="#C7F5E5"/>
<path d="M137.223 57.3574C137.223 55.7427 137.512 54.4781 138.091 53.5634C138.679 52.6487 139.65 52.1914 141.003 52.1914C142.356 52.1914 143.322 52.6487 143.901 53.5634C144.489 54.4781 144.783 55.7427 144.783 57.3574C144.783 58.9814 144.489 60.2554 143.901 61.1794C143.322 62.1034 142.356 62.5654 141.003 62.5654C139.65 62.5654 138.679 62.1034 138.091 61.1794C137.512 60.2554 137.223 58.9814 137.223 57.3574ZM142.851 57.3574C142.851 56.6667 142.804 56.0881 142.711 55.6214C142.627 55.1454 142.45 54.7581 142.179 54.4594C141.918 54.1607 141.526 54.0114 141.003 54.0114C140.48 54.0114 140.084 54.1607 139.813 54.4594C139.552 54.7581 139.374 55.1454 139.281 55.6214C139.197 56.0881 139.155 56.6667 139.155 57.3574C139.155 58.0667 139.197 58.6641 139.281 59.1494C139.365 59.6254 139.542 60.0127 139.813 60.3114C140.084 60.6007 140.48 60.7454 141.003 60.7454C141.526 60.7454 141.922 60.6007 142.193 60.3114C142.464 60.0127 142.641 59.6254 142.725 59.1494C142.809 58.6641 142.851 58.0667 142.851 57.3574Z" fill="#C7F5E5"/>
</svg>
