<svg width="46" height="141" viewBox="0 0 46 141" fill="none" xmlns="http://www.w3.org/2000/svg">
<path d="M36.8801 125.06C36.9401 133.34 30.2701 140.11 21.9901 140.17C13.7101 140.23 6.94007 133.56 6.88007 125.28C6.82007 117 21.2501 37.6699 21.2501 37.6699C21.2501 37.6699 36.8201 116.78 36.8801 125.06Z" fill="white"/>
<path d="M40.3499 27.8599C28.6699 25.5599 16.6599 25.3899 4.91988 27.3599L0.629883 1.7099C15.4599 -0.770101 30.6199 -0.550102 45.3699 2.3499L40.3499 27.8599Z" fill="#62AB93" fill-opacity="0.6"/>
<path d="M12.22 17.17L8.57004 13.51L8.97004 17.5L7.18004 17.68L6.29004 8.73001L8.08004 8.55001L8.48004 12.56L11.34 8.23001L13.51 8.01001L10.26 12.81L14.5 16.94L12.23 17.17H12.22Z" fill="#070707"/>
<path d="M16.9699 7.89014L17.3699 16.8701L15.5699 16.9501L15.1699 7.97014L16.9699 7.89014Z" fill="#070707"/>
<path d="M25.41 12.99C25.73 13.41 25.89 13.88 25.89 14.41C25.89 14.89 25.76 15.31 25.52 15.68C25.28 16.04 24.94 16.33 24.49 16.53C24.04 16.73 23.51 16.83 22.9 16.82L19.02 16.78L19.1 7.79004L22.81 7.83004C23.42 7.83004 23.94 7.94004 24.39 8.14004C24.84 8.34004 25.16 8.62004 25.39 8.97004C25.61 9.32004 25.72 9.72004 25.72 10.17C25.72 10.69 25.57 11.13 25.29 11.48C25.01 11.83 24.63 12.07 24.17 12.22C24.68 12.32 25.09 12.58 25.41 12.99ZM23.69 15.04C23.94 14.84 24.06 14.55 24.07 14.17C24.07 13.78 23.95 13.48 23.69 13.26C23.43 13.04 23.09 12.93 22.65 12.92L20.87 12.9L20.85 15.32L22.67 15.34C23.11 15.34 23.45 15.24 23.7 15.04H23.69ZM20.88 11.51L22.53 11.53C22.96 11.53 23.29 11.44 23.52 11.25C23.75 11.06 23.87 10.78 23.88 10.42C23.88 10.06 23.77 9.78004 23.54 9.58004C23.31 9.38004 22.98 9.28004 22.55 9.27004L20.9 9.25004L20.88 11.5V11.51Z" fill="#070707"/>
<path d="M29.0599 15.65L32.0099 15.87L31.8999 17.3L27.1499 16.95L27.8099 7.97998L29.6099 8.10998L29.0499 15.65H29.0599Z" fill="#070707"/>
<path d="M35.7002 10.17L35.4102 12.4L38.4102 12.8L38.2202 14.22L35.2202 13.82L34.9102 16.18L38.2902 16.63L38.1002 18.09L32.9302 17.41L34.1102 8.48999L39.2802 9.16999L39.0902 10.63L35.7102 10.18L35.7002 10.17Z" fill="#070707"/>
</svg>
